<svg width="23" height="23" viewBox="0 0 23 23" fill="none" xmlns="http://www.w3.org/2000/svg">
<path d="M1.91634 15.3333H21.083V17.25H1.91634V15.3333ZM3.01842 11.4521L3.83301 10.0338L4.64759 11.4521L5.89342 10.7333L5.07884 9.315H6.70801V7.8775H5.07884L5.89342 6.46875L4.64759 5.75L3.83301 7.15875L3.01842 5.75L1.77259 6.46875L2.58717 7.8775H0.958008V9.315H2.58717L1.77259 10.7333L3.01842 11.4521ZM9.43926 10.7333L10.6851 11.4521L11.4997 10.0338L12.3143 11.4521L13.5601 10.7333L12.7455 9.315H14.3747V7.8775H12.7455L13.5601 6.46875L12.3143 5.75L11.4997 7.15875L10.6851 5.75L9.43926 6.46875L10.2538 7.8775H8.62467V9.315H10.2538L9.43926 10.7333ZM22.0413 7.8775H20.4122L21.2268 6.46875L19.9809 5.75L19.1663 7.15875L18.3518 5.75L17.1059 6.46875L17.9205 7.8775H16.2913V9.315H17.9205L17.1059 10.7333L18.3518 11.4521L19.1663 10.0338L19.9809 11.4521L21.2268 10.7333L20.4122 9.315H22.0413V7.8775Z" fill="#868898"/>
</svg>
